<?xml version="1.0" encoding="iso-8859-1"?>
<!-- Generator: Adobe Illustrator 18.0.0, SVG Export Plug-In . SVG Version: 6.00 Build 0)  -->
<!DOCTYPE svg PUBLIC "-//W3C//DTD SVG 1.1//EN" "http://www.w3.org/Graphics/SVG/1.1/DTD/svg11.dtd">
<svg version="1.1" id="Capa_1" xmlns="http://www.w3.org/2000/svg" xmlns:xlink="http://www.w3.org/1999/xlink" x="0px" y="0px"
	 viewBox="0 0 492.554 492.554" style="enable-background:new 0 0 492.554 492.554;" xml:space="preserve">
<path id="XMLID_271_" d="M492.554,351.683c0-26.574-10.246-50.702-26.912-68.843v-51.39c0-120.955-98.401-219.363-219.355-219.363
	S26.915,110.496,26.915,231.45v49.808C10.247,299.4,0,323.519,0,350.085c0,46.979,31.828,86.426,75.068,98.231v3.695
	c0,14.837,12.031,26.867,26.867,26.867c14.835,0,26.865-12.03,26.865-26.867V248.166c0-14.837-12.03-26.867-26.865-26.867
	c-6.34,0-12.095,2.295-16.7,5.976c2.237-86.979,73.545-157.077,161.051-157.077c88.071,0,159.753,70.99,161.114,158.74
	c-4.603-3.729-10.395-6.049-16.78-6.049c-14.837,0-26.865,12.03-26.865,26.867v203.847c0,14.836,12.028,26.865,26.865,26.865
	c14.835,0,26.864-12.029,26.864-26.865v-3.697C460.728,438.108,492.554,398.662,492.554,351.683z"/>
<g>
</g>
<g>
</g>
<g>
</g>
<g>
</g>
<g>
</g>
<g>
</g>
<g>
</g>
<g>
</g>
<g>
</g>
<g>
</g>
<g>
</g>
<g>
</g>
<g>
</g>
<g>
</g>
<g>
</g>
</svg>
